# xmcd
#
# Track frame offsets:
# 150
# 17161
# 20959
# 30899
# 41929
# 53678
# 57163
# 69543
# 71035
# 74530
#
# Disc length: 1159 seconds
#
#
# Revision: 0
# Processed by: cddbd v1.5.2PL0 Copyright (c) Steve Scherf et al.
# Submitted via: FreeRIP 2.951 
#
DISCID=9004850a
DTITLE=J Dilla - Ruff Draft EP
DYEAR=1900
DGENRE=Hip-Hop
TTITLE0=Crushin
TTITLE1=Interlude Ruff Draft EP
TTITLE2=Lets Take It Back
TTITLE3=Make Em NV
TTITLE4=Nothing Like This
TTITLE5=Phone Interlude
TTITLE6=Reckless Driving
TTITLE7=Ruff Draft Intro
TTITLE8=Shouts
TTITLE9=The Money
EXTD=
EXTT0=
EXTT1=
EXTT2=
EXTT3=
EXTT4=
EXTT5=
EXTT6=
EXTT7=
EXTT8=
EXTT9=
PLAYORDER=
